<?xml version="1.0" standalone="no"?>
<!DOCTYPE svg PUBLIC "-//W3C//DTD SVG 20010904//EN"
 "http://www.w3.org/TR/2001/REC-SVG-20010904/DTD/svg10.dtd">
<svg version="1.0" xmlns="http://www.w3.org/2000/svg"
 width="700.000000pt" height="700.000000pt" viewBox="0 0 700.000000 700.000000"
 preserveAspectRatio="xMidYMid meet">
<metadata>
Created by potrace 1.14, written by Peter Selinger 2001-2017
</metadata>
<g transform="translate(0.000000,700.000000) scale(0.100000,-0.100000)"
fill="#000000" stroke="none">
<path d="M3365 5675 c-79 -16 -131 -35 -259 -95 -59 -28 -108 -50 -111 -50 -2
0 -48 -21 -102 -46 -54 -25 -111 -52 -128 -59 -100 -45 -148 -66 -210 -95 -38
-18 -92 -43 -120 -55 -27 -12 -75 -34 -105 -48 -30 -14 -82 -37 -115 -52 -33
-15 -112 -51 -175 -80 -63 -29 -142 -65 -175 -80 -33 -15 -82 -37 -110 -50
-27 -13 -201 -92 -385 -175 -184 -84 -355 -161 -380 -173 -25 -11 -47 -21 -50
-22 -11 -4 -79 -35 -192 -89 -85 -39 -133 -69 -172 -106 -203 -192 -176 -521
57 -678 23 -16 150 -77 282 -137 132 -59 282 -127 334 -151 51 -24 95 -44 97
-44 1 0 55 -25 119 -55 65 -30 121 -55 126 -55 12 0 11 46 14 -525 1 -280 5
-519 8 -531 42 -166 102 -268 228 -392 226 -220 595 -384 1054 -468 22 -4 47
-9 55 -10 8 -2 41 -6 72 -10 32 -3 70 -8 85 -10 98 -12 221 -18 378 -18 171 0
399 10 413 18 4 2 36 7 72 10 322 33 717 161 965 314 195 121 333 266 405 426
51 113 54 142 55 678 0 309 4 501 10 506 6 5 172 82 370 172 198 89 388 176
423 191 34 16 65 29 67 29 3 0 5 -299 5 -663 l0 -664 145 0 c125 0 145 2 146
16 0 9 1 418 2 910 l2 893 -22 65 c-43 128 -113 203 -258 273 -55 26 -248 115
-430 198 -181 82 -359 163 -395 180 -36 16 -339 154 -675 307 -335 152 -641
292 -680 310 -38 18 -92 42 -120 55 -27 12 -75 34 -105 47 -115 53 -147 65
-210 80 -81 20 -226 23 -305 8z m223 -289 c39 -6 193 -73 460 -197 46 -21 85
-39 87 -39 1 0 45 -20 96 -44 52 -24 132 -60 179 -81 47 -21 123 -56 170 -78
47 -21 130 -59 185 -84 120 -54 97 -43 670 -305 253 -116 498 -227 545 -248
241 -107 268 -124 287 -185 11 -37 2 -94 -21 -130 -12 -18 -52 -43 -114 -72
-54 -25 -119 -55 -147 -68 -27 -13 -97 -44 -155 -70 -152 -68 -187 -84 -267
-121 -39 -19 -111 -51 -160 -73 -48 -21 -117 -52 -153 -69 -36 -16 -87 -40
-115 -52 -317 -144 -398 -181 -445 -203 -30 -14 -197 -89 -370 -167 -173 -78
-357 -162 -409 -186 -51 -24 -95 -44 -96 -44 -2 0 -38 -16 -80 -35 -190 -88
-287 -86 -493 11 -51 24 -95 44 -97 44 -2 0 -36 15 -77 34 -256 118 -339 156
-383 176 -106 48 -483 219 -550 250 -159 74 -306 140 -809 369 -291 133 -538
249 -549 259 -44 38 -59 119 -33 170 23 44 43 56 218 136 92 41 197 89 233
106 36 17 105 48 153 69 84 37 162 73 287 131 72 33 140 64 215 97 57 26 107
49 225 103 39 18 187 85 330 150 143 65 294 134 335 153 295 137 604 273 655
287 59 17 112 18 193 6z m-1578 -2299 c91 -43 229 -106 595 -272 154 -70 318
-145 363 -166 46 -22 86 -39 88 -39 2 0 35 -15 74 -34 151 -74 279 -102 415
-92 149 10 169 18 600 216 39 18 135 62 215 97 210 94 248 112 315 143 33 15
103 47 155 70 52 24 133 60 178 81 46 22 87 39 90 39 4 0 7 -190 6 -422 0
-317 -4 -433 -14 -463 -45 -140 -199 -289 -407 -394 -83 -41 -246 -107 -314
-125 -175 -48 -160 -45 -269 -65 -87 -16 -112 -20 -160 -26 -25 -3 -54 -8 -65
-10 -42 -8 -245 -19 -360 -19 -252 1 -482 23 -680 68 -96 21 -129 30 -190 48
-260 78 -470 191 -599 322 -88 88 -101 106 -127 176 -21 53 -22 72 -23 486 -1
428 -1 432 19 424 11 -4 54 -24 95 -43z"/>
</g>
</svg>
